<svg xmlns="http://www.w3.org/2000/svg" viewBox="0 0 80 80" fill="none">
  <path d="M26.5 30c0 1.1.1 2 .4 2.8.3.7.6 1.5 1.1 2.3.2.3.2.5.2.7 0 .3-.2.6-.5.9l-1.7 1.1c-.2.2-.5.2-.7.2-.3 0-.6-.1-.8-.4-.4-.4-.7-.9-1-1.3-.3-.5-.6-1-.9-1.6-2.3 2.7-5.2 4.1-8.6 4.1-2.5 0-4.4-.7-5.9-2.1-1.5-1.4-2.2-3.3-2.2-5.6 0-2.5.9-4.5 2.7-6 1.8-1.5 4.1-2.3 7.1-2.3 1 0 2 .1 3 .2 1.1.1 2.2.3 3.3.6v-2.1c0-2.2-.5-3.8-1.4-4.7-.9-.9-2.5-1.4-4.7-1.4-1 0-2 .1-3.1.4-1.1.3-2.1.6-3.1 1-.5.2-.8.3-1 .4-.2.1-.4.1-.5.1-.4 0-.6-.3-.6-.9v-1.3c0-.5.1-.8.2-1 .1-.2.4-.4.8-.6.9-.5 2.1-.9 3.4-1.2 1.3-.4 2.7-.5 4.2-.5 3.2 0 5.5.7 7 2.2 1.5 1.5 2.2 3.7 2.2 6.8v9zm-11.9 4.4c1 0 2-.2 3-.5 1.1-.4 2-.9 2.8-1.7.5-.5.8-1.1 1-1.8.2-.7.3-1.5.3-2.4v-1.2c-.8-.2-1.7-.4-2.6-.5-.9-.1-1.8-.2-2.7-.2-1.9 0-3.3.4-4.2 1.1-.9.7-1.4 1.8-1.4 3.2 0 1.3.3 2.3 1 2.9.7.8 1.7 1.1 2.8 1.1zm23.6 3.2c-.5 0-.9-.1-1.1-.3-.2-.2-.4-.6-.6-1.1l-6.4-21c-.2-.6-.3-1-.3-1.2 0-.5.2-.7.7-.7h2.6c.5 0 .9.1 1.1.3.2.2.4.6.5 1.1l4.6 18.1 4.3-18.1c.1-.6.3-.9.5-1.1.2-.2.6-.3 1.1-.3h2.1c.5 0 .9.1 1.1.3.2.2.4.6.5 1.1l4.3 18.3 4.7-18.3c.1-.6.3-.9.5-1.1.2-.2.6-.3 1.1-.3h2.5c.5 0 .8.2.8.7 0 .1 0 .3-.1.5 0 .2-.1.4-.2.7l-6.6 21c-.2.6-.4.9-.6 1.1-.2.2-.6.3-1.1.3h-2.3c-.5 0-.9-.1-1.1-.3-.2-.2-.4-.6-.5-1.1l-4.2-17.6-4.2 17.6c-.1.6-.3.9-.5 1.1-.2.2-.6.3-1.1.3h-2.3zm37.7.8c-1.5 0-3-.2-4.4-.5-1.4-.4-2.5-.8-3.3-1.3-.5-.3-.8-.6-.9-.9-.1-.3-.2-.6-.2-.9v-1.4c0-.6.2-.9.7-.9.2 0 .4 0 .5.1.2.1.4.2.7.3.9.4 2 .8 3.1 1 1.2.2 2.3.4 3.5.4 1.8 0 3.3-.3 4.3-1 1-.6 1.5-1.6 1.5-2.8 0-.8-.3-1.5-.8-2-.5-.6-1.5-1.1-3-1.5l-4.2-1.3c-2.2-.7-3.8-1.7-4.8-3-1-1.3-1.5-2.7-1.5-4.3 0-1.2.3-2.3.8-3.3.5-1 1.2-1.8 2.1-2.5.9-.7 1.9-1.2 3.1-1.6 1.2-.4 2.4-.5 3.8-.5.7 0 1.4 0 2.1.1.7.1 1.4.2 2 .4.6.1 1.2.3 1.8.5.5.2 1 .4 1.3.6.4.2.7.5.9.7.2.3.3.6.3 1v1.3c0 .6-.2.9-.7.9-.2 0-.6-.1-1-.3-1.4-.6-3-.9-4.8-.9-1.7 0-3 .3-3.9.8-.9.6-1.4 1.4-1.4 2.6 0 .8.3 1.5.9 2.1.6.6 1.7 1.1 3.2 1.6l4.1 1.3c2.2.7 3.7 1.6 4.7 2.9 1 1.2 1.4 2.6 1.4 4.2 0 1.3-.3 2.4-.8 3.4-.5 1-1.3 1.9-2.2 2.6-1 .7-2.1 1.3-3.4 1.7-1.5.3-2.9.5-4.5.5z" fill="#252F3E"/>
  <path d="M66.4 56.8c-7.8 5.8-19.2 8.9-29 8.9-13.7 0-26.1-5.1-35.4-13.5-.7-.7-.1-1.6.8-1.1 10.1 5.9 22.5 9.4 35.4 9.4 8.7 0 18.2-1.8 27-5.5 1.3-.6 2.4.9 1.2 1.8z" fill="#FF9900"/>
  <path d="M69.2 53.5c-1-.1.1-1 .5-1 4-.3 12.9-1.3 14.5.4.8.8-.9 4.1-1.8 5.6-.3.4 0 .6.4.3 3.4-2.8 4.3-8.7 3.6-9.6-.7-.9-6.8-2-13.2-1.2-1 .1-1.7.2-4 .5z" fill="#FF9900"/>
</svg>
